# xmcd
#
# Track frame offsets: 
#        150
#        11245
#        23158
#        33519
#        46639
#        61688
#        78287
#        92157
#        105288
#        117808
#        132277
#        145558
#        156767
#        167056
#        179505
#
# Disc length: 2700 seconds
#
# Revision: 1
# Processed by: cddbd v1.5.2PL0 Copyright (c) Steve Scherf et al.
# Submitted via: ExactAudioCopy v0.99pb5
#
DISCID=b00a8a0f
DTITLE=Various Artist - The Soul Story: Volume 6 - Disc 1
DYEAR=2006
DGENRE=Soul
TTITLE0=Wilson Pickett - Land Of 1,000 Dances
TTITLE1=Otis Redding - (Sittin' On) The Dock Of The Bay
TTITLE2=Aretha Franklin - Think
TTITLE3=Tyrone Davis - Turn Back The Hands Of Time
TTITLE4=The Main Ingredient - Everybody Plays The Fool
TTITLE5=The Isley Brothers - Love The One You're With
TTITLE6=Dionne Warwick - Anyone Who Had A Heart
TTITLE7=Jackie Wilson - Baby Workout
TTITLE8=Ben E. King - Don't Play That Song (You Lied)
TTITLE9=Bobby Womack - That's The Way I Feel About Cha
TTITLE10=King Curtis - Memphis Soul Stew
TTITLE11=Barbara Lewis - Make Me Your Baby
TTITLE12=Clarence Carter - Too Weak To Fight
TTITLE13=The Intruders - (Love Is Like A) Baseball Game
TTITLE14=The Chi-Lites - Have You Seen Her
EXTD=
EXTT0=
EXTT1=
EXTT2=
EXTT3=
EXTT4=
EXTT5=
EXTT6=
EXTT7=
EXTT8=
EXTT9=
EXTT10=
EXTT11=
EXTT12=
EXTT13=
EXTT14=
PLAYORDER=
